<?xml version="1.0" encoding="UTF-8" standalone="no"?>
<!-- Created with Inkscape (http://www.inkscape.org/) -->

<svg
   xmlns:dc="http://purl.org/dc/elements/1.1/"
   xmlns:cc="http://creativecommons.org/ns#"
   xmlns:rdf="http://www.w3.org/1999/02/22-rdf-syntax-ns#"
   xmlns:svg="http://www.w3.org/2000/svg"
   xmlns="http://www.w3.org/2000/svg"
   xmlns:sodipodi="http://sodipodi.sourceforge.net/DTD/sodipodi-0.dtd"
   xmlns:inkscape="http://www.inkscape.org/namespaces/inkscape"
   width="732.88885"
   height="193.30406"
   id="svg5216"
   version="1.1"
   inkscape:version="0.48.4 r9939"
   sodipodi:docname="logo-white-inline.svg"
   inkscape:export-filename="/home/zac/Web/html/teamlocals/img/logos/logo-white-inline.png"
   inkscape:export-xdpi="90"
   inkscape:export-ydpi="90">
  <defs
     id="defs5218" />
  <sodipodi:namedview
     id="base"
     pagecolor="#ffffff"
     bordercolor="#666666"
     borderopacity="1.0"
     inkscape:pageopacity="0.0"
     inkscape:pageshadow="2"
     inkscape:zoom="0.49497475"
     inkscape:cx="332.06054"
     inkscape:cy="151.51447"
     inkscape:document-units="px"
     inkscape:current-layer="layer1"
     showgrid="false"
     fit-margin-top="0"
     fit-margin-left="0"
     fit-margin-right="0"
     fit-margin-bottom="0"
     inkscape:window-width="1237"
     inkscape:window-height="401"
     inkscape:window-x="3"
     inkscape:window-y="183"
     inkscape:window-maximized="0" />
  <metadata
     id="metadata5221">
    <rdf:RDF>
      <cc:Work
         rdf:about="">
        <dc:format>image/svg+xml</dc:format>
        <dc:type
           rdf:resource="http://purl.org/dc/dcmitype/StillImage" />
        <dc:title></dc:title>
      </cc:Work>
    </rdf:RDF>
  </metadata>
  <g
     inkscape:label="Layer 1"
     inkscape:groupmode="layer"
     id="layer1"
     transform="translate(-692.8228,-520.93738)">
    <g
       id="g4477"
       transform="translate(2588.6409,-747.91622)"
       style="fill:#ffffff;fill-opacity:1">
      <path
         inkscape:connector-curvature="0"
         style="fill:#ffffff;fill-opacity:1"
         d="m 603.34375,10.84375 c -18.501,0.033 -37.54925,0.1572 -55.78125,0.4375 -129.4962,1.9909 -182.6811,4.75265 -189.5,9.84375 -3.7447,2.7958 -4.27775,6.2799 -3.59375,23.25 0.9856,24.455 5.0287,54.2231 11.0625,81.5 3.948,17.8476 5.5742,19.73285 18.625,21.46875 26.7053,3.552 75.78665,6.68725 149.28125,9.53125 7.7,0.2979 17.0372,0.8078 20.75,1.125 l 6.75,0.5625 -3.5625,6.15625 c -9.3845,16.1879 -13.0114,25.7004 -10.6875,28.0625 2.5898,2.6323 22.27545,-4.5353 67.71875,-24.6875 18.4307,-8.1732 13.27645,-7.61825 57.53125,-6.28125 38.6627,1.1679 48.8697,-0.5452 52.875,-8.875 1.9337,-4.0215 5.7765,-26.7539 7.0625,-41.875 1.5039,-17.6828 1.30685,-47.30975 -0.40625,-64.96875 -2.6666,-27.4866 -4.161,-31.28595 -13.0625,-32.84375 -8.9553,-1.5673 -59.5596,-2.50545 -115.0625,-2.40625 z m -139.53125,36.5 c 20.2196,0 33.40625,16.47525 33.40625,34.34375 0,17.9625 -13.18665,34.3125 -33.40625,34.3125 -20.2196,0 -33.375,-16.444 -33.375,-34.3125 0,-17.9625 13.1554,-34.34375 33.375,-34.34375 z m 73.1875,0 c 5.6427,0 11.2049,1.33665 15.625,3.59375 l -2.71875,9.125 C 546.33265,57.8995 541.7022,56.75 537,56.75 c -13.4483,0 -22.5625,11.9594 -22.5625,24.9375 0,13.5424 9.3957,25 22.75,25 5.8307,0 10.5519,-1.9619 13.9375,-4.125 l 2.71875,9.03125 C 549.61175,113.85085 543.9587,116 537.1875,116 516.9679,116 504.28125,100.0262 504.28125,81.6875 504.28125,63.725 516.7804,47.34375 537,47.34375 z m 142.9375,0 c 6.207,0 11.2984,2.9216 15.8125,8 l -4.90625,8.28125 c -2.9154,-3.4797 -6.2984,-6.59375 -10.8125,-6.59375 -4.3261,0 -8.46875,3.01355 -8.46875,8.65625 0,13.1662 26.34375,10.33915 26.34375,31.78125 0,12.602 -10.62805,18.53125 -19.65625,18.53125 -8.464,0 -14.30155,-3.95585 -17.78125,-8.09375 l 5.1875,-8.0625 c 3.0094,2.5392 7.60835,6.28125 12.96875,6.28125 5.2665,0 9.40625,-3.85995 9.40625,-8.65625 0,-13.5424 -26.15625,-10.62125 -26.15625,-31.78125 0,-11.2854 9.1282,-18.34375 18.0625,-18.34375 z M 397.75,48.75 l 9.59375,0 0,56.90625 16.9375,0 0,8.9375 -26.53125,0 0,-65.84375 z m 227.4375,0 9.59375,0 0,56.90625 16.9375,0 0,8.9375 -26.53125,0 0,-65.84375 z m -41.625,0.65625 5.625,0 26.8125,65.8125 -9.875,0 -7.53125,-18.40625 -24.4375,0 -7.53125,18.40625 -9.875,0 26.8125,-65.8125 z M 463.8125,56.75 c -13.3544,0 -23.21875,11.9594 -23.21875,24.9375 0,13.0722 9.86435,25 23.21875,25 13.4483,0 23.34375,-11.9278 23.34375,-25 0,-12.9781 -9.89545,-24.9375 -23.34375,-24.9375 z m 122.5625,9.9375 -8.5625,21.1875 17.21875,0 -8.65625,-21.1875 z"
         transform="translate(-1895.8181,1268.8536)"
         id="path3891-7-5" />
      <g
         id="g3825-4-0"
         style="fill:#ffffff;fill-opacity:1"
         transform="translate(-1476.4545,1042.84)">
        <path
           style="fill:#ffffff;fill-opacity:1"
           d="m -383.28732,385.12024 c -7.08403,-3.54692 -15.04668,-11.11164 -15.93015,-15.13405 -0.83804,-3.8156 -1.90596,-6.79533 0.41029,-21.78581 2.14635,-13.89085 3.8697,-28.4411 12.70268,-48.33819 6.45389,-14.53795 17.90642,-36.83981 22.44611,-44.70278 -4.32569,0.43851 -19.45983,2.75413 -30.82497,6.7094 -7.33222,2.55175 -13.16942,6.52309 -13.27686,8.64674 0,0 -5.14915,-3.92074 -7.51945,-7.43343 -3.32878,-4.93311 -5.6256,-14.77832 -2.83322,-17.62726 33.42895,-14.40739 57.17152,-15.878 92.12271,-18.42849 7.01709,-0.51206 17.35755,-0.45198 19.26671,-0.7618 3.18444,-0.51676 3.00697,-0.57525 5.78366,3.25785 3.14732,4.34476 0.94865,9.66056 1.41889,13.95984 0.24107,2.204 -0.63769,3.79131 -5.0862,4.91564 -2.75,0.69504 -6.71132,1.55618 -14.99235,2.71428 l -16.59947,2.32143 c -7.20138,9.63006 -14.65886,22.88662 -19.39616,33.92858 -21.16141,50.43815 -20.10194,81.05973 -20.10194,94.03079 0,3.67741 -0.37812,6.68621 -0.84028,6.68621 -0.46215,0 -3.49965,-1.33153 -6.75,-2.95895 z"
           id="path3010-1-8"
           inkscape:connector-curvature="0"
           sodipodi:nodetypes="sssscscsccsssssccsss" />
        <path
           id="path3008-1-8"
           d="m -317.15625,265.40625 c -2.17934,0.0528 -4.27169,0.86677 -6.5625,2.40625 -15.00631,10.08463 -33.17361,53.67722 -35.125,84.34375 -0.53605,8.42427 -0.38055,9.40012 2.15625,14.40625 3.53138,6.96885 11.1752,14.54945 17.78125,17.625 7.6496,3.56139 14.22359,3.36429 19.6875,-0.59375 5.66369,-4.10275 12.04915,-10.8608 19.03125,-20.09375 l 5.78125,-7.625 0.53125,7.75 c 0.29137,4.25097 1.25042,9.15457 2.15625,10.90625 3.38633,6.54843 11.40043,12.125 17.40625,12.125 5.25468,0 11.85735,-9.94372 21.9375,-33 0.95821,-2.19173 1.09695,-1.79466 1.15625,3.28125 0.0771,6.59212 2.1502,11.43015 7.21875,16.8125 4.70739,4.99885 9.2141,7.90625 12.25,7.90625 3.47301,0 9.36424,-6.18207 15.65625,-16.40625 l 4.9375,-8.03125 -0.125,5.53125 c -0.14242,6.17769 1.51916,10.14492 6.78125,16.3125 3.79134,4.44373 8.07874,7.58375 10.4375,7.59375 1.01492,0.004 2.05767,-1.54009 2.84375,-4.25 4.12235,-14.21143 28.11466,-67.04159 29.71875,-65.4375 0.28653,0.28652 0.071,1.33415 -0.46875,2.34375 -2.07989,3.8902 -8.01493,25.29344 -9.59375,34.5625 -1.96141,11.51514 -1.51173,13.01453 6.125,19.78125 4.06618,3.60294 11.82195,8 14.125,8 0.37182,0 1.77425,-3.0375 3.09375,-6.75 3.52336,-9.91324 13.858,-31.32906 22.5625,-46.75 4.19251,-7.42748 7.78944,-13.5 8,-13.5 0.21055,0 -1.17578,4.6125 -3.09375,10.25 -4.49739,13.2192 -8.40625,30.22235 -8.40625,36.71875 0,4.77698 0.32049,5.44549 4.875,10 4.68569,4.68568 13.50319,10.03125 16.53125,10.03125 2.19089,0 7.1597,-4.54946 10.71875,-9.8125 12.17571,-18.00513 19.452636,-44.02292 17.117566,-51.38008 -0.76983,-2.42551 -2.34063,-2.50995 -3.1875,-0.1875 -2.5732,7.05665 -14.548836,27.16035 -20.961316,34.38008 l -3.125,3.5 0.65625,-4 c 1.85612,-11.50207 11.93032,-40.25703 20.4375,-58.3125 L -81.25,285.5625 -84.90625,281.5 c -3.52457,-3.90128 -12.48842,-9.82445 -14.90625,-9.84375 -5.52277,-0.0442 -25.45428,28.15603 -39.53125,55.9375 -3.74439,7.38971 -6.8125,12.88962 -6.8125,12.25 0,-4.00116 15.74605,-43.70909 20.21875,-51 l 2.03125,-3.3125 -4.875,-4.6875 c -2.69166,-2.57623 -7.06292,-5.75884 -9.71875,-7.0625 -4.80684,-2.35952 -4.86244,-2.3623 -7.5,-0.4375 -5.91195,4.31432 -20.37969,25.81176 -30.84375,45.8125 -2.69767,5.15625 -4.96398,9.14612 -5.25,9.3125 -0.1544,-3.18835 12.2636,-36.44216 17.625,-47.15625 3.93521,-7.86405 3.88205,-8.02711 -4.09375,-12.0625 -6.58762,-3.33303 -12.91979,-4.4186 -15.15625,-2.5625 -3.15941,2.62208 -11.83612,25.14499 -17.9375,46.46875 -1.80782,6.31817 -4.2818,11.68183 -8.25,18 -6.15048,9.79279 -17.52319,25.5393 -18.0625,25 -0.5687,-0.56871 2.79998,-16.50953 5.5,-26 6.1025,-21.45012 10.41348,-32.90058 18,-47.84375 1.90966,-3.76146 3.22738,-7.46334 2.9375,-8.21875 -0.80097,-2.0873 -12.06651,-7.39612 -17.15625,-8.09375 -5.09343,-0.69813 -7.4172,0.69044 -9.5,5.71875 -1.4745,3.55978 -2.19985,3.60563 -6.3125,0.46875 -7.94927,-6.0632 -17.64793,-8.13721 -23.59375,-5.0625 -4.95717,2.56345 -11.79657,11.53793 -17.5,22.96875 -4.97574,9.97239 -11.26558,26.99439 -13,35.1875 -1.2004,5.67048 -22.4487,27.7603 -36.03125,37.46875 -8.13665,5.81586 -11.38685,6.18837 -12.6875,1.40625 -1.07786,-3.96295 0.58268,-15.76018 3.84375,-27.28125 2.34204,-8.27424 2.78569,-9.12548 4.21875,-7.9375 5.09343,4.22234 10.57413,4.6334 17.59375,1.34375 11.76499,-5.51349 23.5,-24.56104 23.5,-38.15625 0,-6.56665 -6.88646,-14.76058 -19.53125,-23.15625 -3.72205,-2.4713 -6.66675,-3.63033 -9.46875,-3.5625 z m 9.875,17.40625 c 1.08092,-0.24311 1.25013,1.76037 0.84375,6.09375 -1.00682,10.73601 -7.19994,22.18606 -15.09375,27.90625 -3.63468,2.63384 -5.625,3.47503 -5.625,2.375 0,-3.17182 10.91282,-25.49859 15.53125,-31.78125 2.09797,-2.85396 3.50303,-4.40467 4.34375,-4.59375 z m 67.34375,1.9375 c 1.07213,0.005 2.12935,0.39932 3.25,1.21875 1.75447,1.2829 1.69984,1.6736 -0.9375,9.75 -2.96935,9.09313 -19.68111,42.56061 -28.9375,57.9375 -7.12021,11.8282 -7.93086,12.69274 -7.09375,7.5 3.66689,-22.74623 19.3843,-63.9385 27.8125,-72.875 2.27113,-2.40809 4.11937,-3.54025 5.90625,-3.53125 z"
           style="fill:#ffffff;fill-opacity:1"
           inkscape:connector-curvature="0"
           sodipodi:nodetypes="csssssccsssscsscccscsccssssssssssssscccccccsscccssscssssscsssssssssssssssscsssssscsssssc" />
      </g>
    </g>
  </g>
</svg>
