<?xml version="1.0" encoding="UTF-8" standalone="no"?>
<!-- Created with Inkscape (http://www.inkscape.org/) -->

<svg
   xmlns:dc="http://purl.org/dc/elements/1.1/"
   xmlns:cc="http://creativecommons.org/ns#"
   xmlns:rdf="http://www.w3.org/1999/02/22-rdf-syntax-ns#"
   xmlns:svg="http://www.w3.org/2000/svg"
   xmlns="http://www.w3.org/2000/svg"
   xmlns:sodipodi="http://sodipodi.sourceforge.net/DTD/sodipodi-0.dtd"
   xmlns:inkscape="http://www.inkscape.org/namespaces/inkscape"
   width="223.83102"
   height="43.029205"
   id="svg6757"
   version="1.1"
   inkscape:version="0.48.4 r9939"
   sodipodi:docname="upgs-logo.svg"
   inkscape:export-filename="/home/zac/Web/html/rose/assets/upgs/upgs-logo2.png"
   inkscape:export-xdpi="90"
   inkscape:export-ydpi="90">
  <defs
     id="defs6759" />
  <sodipodi:namedview
     id="base"
     pagecolor="#ffffff"
     bordercolor="#666666"
     borderopacity="1.0"
     inkscape:pageopacity="0"
     inkscape:pageshadow="2"
     inkscape:zoom="1"
     inkscape:cx="-26.35519"
     inkscape:cy="62.213257"
     inkscape:document-units="px"
     inkscape:current-layer="layer1"
     showgrid="false"
     showguides="false"
     inkscape:guide-bbox="true"
     fit-margin-top="0"
     fit-margin-left="0"
     fit-margin-right="0"
     fit-margin-bottom="0"
     inkscape:window-width="1366"
     inkscape:window-height="702"
     inkscape:window-x="0"
     inkscape:window-y="27"
     inkscape:window-maximized="1"
     inkscape:snap-global="true"
     inkscape:snap-bbox="true">
    <inkscape:grid
       type="xygrid"
       id="grid3021"
       empspacing="5"
       visible="true"
       enabled="true"
       snapvisiblegridlinesonly="true"
       originx="47.714428px"
       originy="6.7087641px" />
    <sodipodi:guide
       orientation="0,1"
       position="90.58542,79.493232"
       id="guide3812" />
    <sodipodi:guide
       orientation="0,1"
       position="180.63105,0.49614611"
       id="guide3814" />
    <sodipodi:guide
       orientation="0,1"
       position="156.33592,72.617218"
       id="guide3816" />
    <sodipodi:guide
       orientation="0,1"
       position="171.76561,5.6250301"
       id="guide3818" />
  </sodipodi:namedview>
  <metadata
     id="metadata6762">
    <rdf:RDF>
      <cc:Work
         rdf:about="">
        <dc:format>image/svg+xml</dc:format>
        <dc:type
           rdf:resource="http://purl.org/dc/dcmitype/StillImage" />
        <dc:title></dc:title>
      </cc:Work>
    </rdf:RDF>
  </metadata>
  <g
     inkscape:label="Layer 1"
     inkscape:groupmode="layer"
     id="layer1"
     transform="translate(-160.72516,-480.44606)">
    <flowRoot
       xml:space="preserve"
       id="flowRoot5331"
       style="font-size:40px;font-style:normal;font-weight:normal;line-height:125%;letter-spacing:0px;word-spacing:0px;fill:#000000;fill-opacity:1;stroke:none;font-family:Sans"
       transform="matrix(0.61992973,0,0,0.61992973,58.058782,298.39313)"><flowRegion
         id="flowRegion5333"><rect
           id="rect5335"
           width="1185.7142"
           height="170.00002"
           x="372.85715"
           y="252.36218" /></flowRegion><flowPara
         id="flowPara5337"
         style="font-size:72px;font-style:normal;font-variant:normal;font-weight:normal;font-stretch:normal;text-align:start;line-height:100%;writing-mode:tb-rl;text-anchor:start;font-family:Sawasdee;-inkscape-font-specification:Sawasdee">GAMING</flowPara><flowPara
         style="font-size:72px;font-style:normal;font-variant:normal;font-weight:normal;font-stretch:normal;text-align:start;line-height:100%;writing-mode:tb-rl;text-anchor:start;font-family:Sawasdee;-inkscape-font-specification:Sawasdee"
         id="flowPara5485">SOCIETY</flowPara></flowRoot>    <flowRoot
       transform="matrix(0.61992973,0,0,0.61992973,49.202654,123.04159)"
       xml:space="preserve"
       id="flowRoot5487"
       style="font-size:40px;font-style:normal;font-variant:normal;font-weight:normal;font-stretch:normal;text-align:start;line-height:125%;letter-spacing:0px;word-spacing:0px;writing-mode:lr-tb;text-anchor:start;fill:#000000;fill-opacity:1;stroke:none;font-family:Sans;-inkscape-font-specification:Sans"><flowRegion
         id="flowRegion5489"><rect
           id="rect5491"
           width="371.73615"
           height="202.0305"
           x="400.02042"
           y="184.46997" /></flowRegion><flowPara
         id="flowPara5493" /></flowRoot>    <flowRoot
       transform="matrix(0.61992973,0,0,0.61992973,49.202654,123.04159)"
       xml:space="preserve"
       id="flowRoot5537"
       style="font-size:40px;font-style:normal;font-variant:normal;font-weight:normal;font-stretch:normal;text-align:start;line-height:125%;letter-spacing:0px;word-spacing:0px;writing-mode:lr-tb;text-anchor:start;fill:#000000;fill-opacity:1;stroke:none;font-family:Sans;-inkscape-font-specification:Sans"><flowRegion
         id="flowRegion5539"><rect
           id="rect5541"
           width="85"
           height="316.42856"
           x="213.57143"
           y="44.808769" /></flowRegion><flowPara
         id="flowPara5543" /></flowRoot>    <path
       sodipodi:type="arc"
       style="fill:#939740;fill-opacity:1;stroke:none"
       id="path5393-6-1-2"
       sodipodi:cx="421.78571"
       sodipodi:cy="142.66591"
       sodipodi:rx="35.357143"
       sodipodi:ry="18.571428"
       d="m 457.14285,142.66591 c 0,10.25672 -15.82993,18.57143 -35.35714,18.57143 -19.52722,0 -35.35715,-8.31471 -35.35715,-18.57143 0,-10.25672 15.82993,-18.57143 35.35715,-18.57143 19.52721,0 35.35714,8.31471 35.35714,18.57143 z"
       transform="matrix(0.15777876,-0.15799206,0.3003865,0.30079257,240.1774,525.47388)" />
    <rect
       style="fill:#323232;fill-opacity:1;stroke:none"
       id="rect6433"
       width="15.507602"
       height="42.845741"
       x="172.74599"
       y="481.27725"
       ry="5.1159101"
       transform="matrix(0.99999344,-0.00362262,0.00362262,0.99999344,0,0)" />
    <rect
       style="fill:#323232;fill-opacity:1;stroke:none"
       id="rect6433-1"
       width="15.507602"
       height="42.856365"
       x="493.8924"
       y="-204.35286"
       ry="5.1171789"
       transform="matrix(-0.00152918,0.99999883,-0.99999883,-0.00152842,0,0)" />
    <path
       sodipodi:type="arc"
       style="fill:#4c79ba;fill-opacity:1;stroke:none"
       id="path5393-6-1-2-1"
       sodipodi:cx="421.78571"
       sodipodi:cy="142.66591"
       sodipodi:rx="35.357143"
       sodipodi:ry="18.571428"
       d="m 457.14285,142.66591 c 0,10.25672 -15.82993,18.57143 -35.35714,18.57143 -19.52722,0 -35.35715,-8.31471 -35.35715,-18.57143 0,-10.25672 15.82993,-18.57143 35.35715,-18.57143 19.52721,0 35.35714,8.31471 35.35714,18.57143 z"
       transform="matrix(0.15777876,-0.15799206,0.3003865,0.30079257,253.6719,539.13638)" />
    <flowRoot
       xml:space="preserve"
       id="flowRoot5331-4"
       style="font-size:40px;font-style:normal;font-weight:normal;line-height:125%;letter-spacing:0px;word-spacing:0px;fill:#000000;fill-opacity:1;stroke:none;font-family:Sans"
       transform="matrix(0.61992973,0,0,0.61992973,-76.142697,443.04204)"><flowRegion
         id="flowRegion5333-5"><rect
           id="rect5335-0"
           width="1185.7142"
           height="170.00002"
           x="372.85715"
           y="252.36218" /></flowRegion><flowPara
         id="flowPara5337-3"
         style="font-size:72px;font-style:normal;font-variant:normal;font-weight:normal;font-stretch:normal;text-align:start;line-height:100%;writing-mode:tb-rl;text-anchor:start;font-family:Sawasdee;-inkscape-font-specification:Sawasdee">GAMING</flowPara><flowPara
         style="font-size:72px;font-style:normal;font-variant:normal;font-weight:normal;font-stretch:normal;text-align:start;line-height:100%;writing-mode:tb-rl;text-anchor:start;font-family:Sawasdee;-inkscape-font-specification:Sawasdee"
         id="flowPara5485-5">SOCIETY</flowPara></flowRoot>    <flowRoot
       transform="matrix(0.61992973,0,0,0.61992973,-84.998834,267.69049)"
       xml:space="preserve"
       id="flowRoot5487-8"
       style="font-size:40px;font-style:normal;font-variant:normal;font-weight:normal;font-stretch:normal;text-align:start;line-height:125%;letter-spacing:0px;word-spacing:0px;writing-mode:lr-tb;text-anchor:start;fill:#000000;fill-opacity:1;stroke:none;font-family:Sans;-inkscape-font-specification:Sans"><flowRegion
         id="flowRegion5489-3"><rect
           id="rect5491-7"
           width="371.73615"
           height="202.0305"
           x="400.02042"
           y="184.46997" /></flowRegion><flowPara
         id="flowPara5493-3" /></flowRoot>    <flowRoot
       transform="matrix(0.61992973,0,0,0.61992973,-84.998834,267.69049)"
       xml:space="preserve"
       id="flowRoot5537-3"
       style="font-size:40px;font-style:normal;font-variant:normal;font-weight:normal;font-stretch:normal;text-align:start;line-height:125%;letter-spacing:0px;word-spacing:0px;writing-mode:lr-tb;text-anchor:start;fill:#000000;fill-opacity:1;stroke:none;font-family:Sans;-inkscape-font-specification:Sans"><flowRegion
         id="flowRegion5539-3"><rect
           id="rect5541-1"
           width="85"
           height="316.42856"
           x="213.57143"
           y="44.808769" /></flowRegion><flowPara
         id="flowPara5543-5" /></flowRoot>    <path
       sodipodi:type="arc"
       style="fill:#f2a216;fill-opacity:1;stroke:none"
       id="path5393"
       sodipodi:cx="421.78571"
       sodipodi:cy="142.66591"
       sodipodi:rx="35.357143"
       sodipodi:ry="18.571428"
       d="m 457.14285,142.66591 c 0,10.25672 -15.82993,18.57143 -35.35714,18.57143 -19.52722,0 -35.35715,-8.31471 -35.35715,-18.57143 0,-10.25672 15.82993,-18.57143 35.35715,-18.57143 19.52721,0 35.35714,8.31471 35.35714,18.57143 z"
       transform="matrix(0.15777876,-0.15799206,0.3003865,0.30079257,253.60368,512.07201)" />
    <path
       sodipodi:type="arc"
       style="fill:#af4120;fill-opacity:1;stroke:none"
       id="path5393-8"
       sodipodi:cx="421.78571"
       sodipodi:cy="142.66591"
       sodipodi:rx="35.357143"
       sodipodi:ry="18.571428"
       d="m 457.14285,142.66591 c 0,10.25672 -15.82993,18.57143 -35.35714,18.57143 -19.52722,0 -35.35715,-8.31471 -35.35715,-18.57143 0,-10.25672 15.82993,-18.57143 35.35715,-18.57143 19.52721,0 35.35714,8.31471 35.35714,18.57143 z"
       transform="matrix(0.15777876,-0.15799206,0.3003865,0.30079257,267.2631,525.66733)" />
    <flowRoot
       xml:space="preserve"
       id="flowRoot7458"
       style="font-size:40px;font-style:normal;font-variant:normal;font-weight:normal;font-stretch:normal;text-align:start;line-height:125%;letter-spacing:0px;word-spacing:0px;writing-mode:lr-tb;text-anchor:start;fill:#000000;fill-opacity:1;stroke:none;font-family:Sans;-inkscape-font-specification:Sans"
       transform="matrix(0.61992973,0,0,0.61992973,31.950145,198.95737)"><flowRegion
         id="flowRegion7460"><rect
           id="rect7462"
           width="201.52544"
           height="56.063465"
           x="305.06607"
           y="462.93817" /></flowRegion><flowPara
         id="flowPara7464" /></flowRoot>    <path
       style="fill:#181818;fill-opacity:1"
       d="m 223.02468,520.34586 c -2.61759,-0.43725 -5.61727,-2.01073 -7.58545,-3.9789 -2.27956,-2.27955 -4.2626,-6.22783 -4.8878,-9.73172 -0.49374,-2.76712 -0.49282,-19.42199 10e-4,-20.6042 0.56658,-1.35597 1.42922,-1.76015 3.75688,-1.76015 2.51449,0 3.26181,0.20632 3.81785,1.05395 0.39515,0.60239 0.45438,1.67225 0.5772,10.42596 0.13638,9.72021 0.13914,9.76065 0.77968,11.4376 0.88647,2.32079 1.7577,3.3741 3.42857,4.1451 1.10106,0.50808 1.77833,0.64395 3.16579,0.63507 3.12957,-0.0201 5.14746,-1.60237 6.43648,-5.04713 0.49998,-1.3361 0.53418,-1.95121 0.60661,-10.90905 0.05,-6.18113 0.17332,-9.73691 0.35358,-10.1919 0.36884,-0.93098 1.48137,-1.46704 3.31792,-1.59866 1.93243,-0.13851 3.55022,0.34199 4.23427,1.25765 0.50494,0.67589 0.52635,1.01808 0.60187,9.61396 0.0986,11.23341 -0.12757,12.98956 -2.19875,17.06536 -3.15354,6.20577 -9.45161,9.3487 -16.40581,8.18706 z m 68.49004,0.13502 c -0.2748,-0.0639 -1.11793,-0.23697 -1.87365,-0.38472 -0.7557,-0.14777 -2.27336,-0.70224 -3.37256,-1.23216 -4.7775,-2.30326 -8.42752,-6.67635 -9.90804,-11.87084 -0.73334,-2.57296 -0.90574,-7.40173 -0.12879,-9.85658 1.96022,-6.19329 4.19921,-9.37308 10.0994,-12.08549 2.36328,-1.08644 10.15097,-1.05107 12.52739,-0.31606 3.8987,1.20585 7.27065,3.28958 7.27065,4.74755 0,1.04132 -1.08364,2.94112 -2.33614,4.09563 -1.70325,1.56998 -2.10404,1.58862 -4.7651,0.22159 -2.75295,-1.41423 -4.60192,-1.80775 -6.73143,-1.43264 -5.38222,0.94805 -8.7417,5.64349 -7.88395,11.01912 0.37218,2.33259 1.24842,4.05072 2.90914,5.70427 2.40606,2.39574 4.92833,3.25482 8.21422,2.7978 3.22006,-0.44788 3.09869,-0.31168 3.09869,-3.47679 l 0,-2.72721 -2.8676,-0.091 c -3.64141,-0.11557 -3.89418,-0.30234 -4.06763,-3.0052 -0.15925,-2.48143 0.28398,-3.56671 1.60662,-3.93398 0.53554,-0.1487 3.26649,-0.26613 6.20297,-0.26668 5.74065,-0.001 6.64401,0.18416 7.30005,1.49713 0.4861,0.97285 0.44687,14.26786 -0.0449,15.21886 -0.97933,1.8938 -4.47371,4.12589 -7.6519,4.88773 -1.59992,0.38353 -6.65261,0.70921 -7.59743,0.48971 z m 28.35859,-0.25213 c -3.83319,-0.83085 -6.90749,-2.86812 -8.77729,-5.81649 -1.17626,-1.85476 -0.97503,-2.99778 0.87914,-4.99342 2.08374,-2.24273 3.57495,-2.06836 6.62501,0.7747 2.42652,2.26181 4.15872,2.84073 6.52938,2.18217 1.83843,-0.51072 3.06688,-2.941 2.25418,-4.45952 -0.41767,-0.78044 -1.95956,-1.47833 -4.84155,-2.1914 -4.47245,-1.1066 -8.20993,-2.93165 -9.48506,-4.63163 -2.39656,-3.19504 -2.80992,-7.84032 -1.01358,-11.39069 2.71647,-5.36902 9.76724,-6.82494 17.02086,-4.44754 2.75433,0.90274 5.04444,2.5909 5.04444,4.1348 0,1.81192 -2.86527,4.99884 -4.49429,4.99884 -0.69306,0 -2.42955,-0.89556 -3.43213,-1.77003 -0.92512,-0.80691 -2.10521,-1.09489 -3.73431,-0.91127 -1.4057,0.15844 -2.34874,0.83535 -2.79413,2.0056 -0.30301,0.79612 -0.2893,0.99786 0.12468,1.83481 0.59165,1.19601 1.96061,1.89565 4.81757,2.46213 4.69579,0.9311 7.90786,2.24349 9.25995,3.78342 1.44806,1.64924 2.08879,3.40766 2.20825,6.06032 0.12569,2.7906 -0.22349,4.60644 -1.26519,6.57973 -2.39077,4.52872 -8.97518,7.08532 -14.92598,5.79547 z m -73.97953,-1.59928 c -0.0814,-1.46592 -0.34299,-31.4591 0.13306,-32.59843 0.70849,-1.69563 0.96421,-1.7509 8.51381,-1.84003 7.35573,-0.0868 8.93271,0.0943 11.30745,1.29923 3.27394,1.66113 5.47435,4.01475 6.64244,7.10492 0.45074,1.1924 0.53477,1.93668 0.52684,4.66633 -0.008,2.78974 -0.0887,3.43764 -0.57194,4.5952 -0.91707,2.19675 -2.27877,4.01608 -3.89974,5.21038 -3.34836,2.46698 -5.40955,3.04915 -10.81895,3.05575 l -3.55992,0.004 0,3.73104 c 0,2.05204 -0.0356,4.41193 -0.10266,4.96157 -0.0745,1.09428 -0.13329,2.15318 -0.94525,2.15318 -1.89416,0 -5.01571,-0.0248 -5.94947,-0.034 -1.10578,0 -1.25792,-1.43223 -1.27573,-2.30929 z m 15.57247,-17.25697 c 4.28539,-1.19018 4.24269,-7.32568 -0.059,-8.48402 -0.5395,-0.14528 -2.36119,-0.23255 -4.0482,-0.19394 l -3.06728,0.0702 -0.0688,4.11242 c -0.0378,2.26185 -0.0133,4.25727 0.0547,4.4343 0.15451,0.40261 5.78672,0.45044 7.18881,0.061 z"
       id="path7514"
       inkscape:connector-curvature="0"
       sodipodi:nodetypes="csscssssssssssssscccsssssssssssssscssssssscsssssssssssssscssssssccssscssscscsccsscscss" />
  </g>
</svg>
