<?xml version="1.0" encoding="UTF-8" standalone="no"?>
<!-- Created with Inkscape (http://www.inkscape.org/) -->

<svg
   xmlns:dc="http://purl.org/dc/elements/1.1/"
   xmlns:cc="http://creativecommons.org/ns#"
   xmlns:rdf="http://www.w3.org/1999/02/22-rdf-syntax-ns#"
   xmlns:svg="http://www.w3.org/2000/svg"
   xmlns="http://www.w3.org/2000/svg"
   xmlns:sodipodi="http://sodipodi.sourceforge.net/DTD/sodipodi-0.dtd"
   xmlns:inkscape="http://www.inkscape.org/namespaces/inkscape"
   width="256.13702"
   height="98.905891"
   id="svg4400"
   version="1.1"
   inkscape:version="0.48.3.1 r9886"
   sodipodi:docname="default.svg"
   inkscape:export-filename="/home/zac/documents/ROSE/logos/black.png"
   inkscape:export-xdpi="90"
   inkscape:export-ydpi="90">
  <defs
     id="defs4402" />
  <sodipodi:namedview
     id="base"
     pagecolor="#ffffff"
     bordercolor="#666666"
     borderopacity="1.0"
     inkscape:pageopacity="0.0"
     inkscape:pageshadow="2"
     inkscape:zoom="2.8"
     inkscape:cx="129.6476"
     inkscape:cy="1.950398"
     inkscape:document-units="px"
     inkscape:current-layer="g4126"
     showgrid="false"
     inkscape:window-width="1440"
     inkscape:window-height="900"
     inkscape:window-x="1366"
     inkscape:window-y="-32"
     inkscape:window-maximized="1"
     fit-margin-top="10"
     fit-margin-left="10"
     fit-margin-right="10"
     fit-margin-bottom="10"
     showguides="false"
     inkscape:guide-bbox="true">
    <sodipodi:guide
       orientation="0,1"
       position="103.21429,17.142857"
       id="guide3970" />
    <sodipodi:guide
       orientation="0,1"
       position="136.42857,81.428571"
       id="guide3972" />
  </sodipodi:namedview>
  <metadata
     id="metadata4405">
    <rdf:RDF>
      <cc:Work
         rdf:about="">
        <dc:format>image/svg+xml</dc:format>
        <dc:type
           rdf:resource="http://purl.org/dc/dcmitype/StillImage" />
        <dc:title></dc:title>
      </cc:Work>
    </rdf:RDF>
  </metadata>
  <g
     inkscape:label="Layer 1"
     inkscape:groupmode="layer"
     id="layer1"
     transform="translate(-51.074348,-348.62352)">
    <g
       id="g4126"
       transform="matrix(0.4619619,0,0,0.4619619,-430.87416,351.99806)">
      <g
         transform="translate(987.91143,-452.17989)"
         style="font-size:200px;font-style:normal;font-variant:normal;font-weight:normal;font-stretch:normal;text-align:start;line-height:125%;letter-spacing:0px;word-spacing:0px;writing-mode:lr-tb;text-anchor:start;fill:#000000;fill-opacity:1;stroke:none;font-family:Quicksand;-inkscape-font-specification:Quicksand;stroke-opacity:1"
         id="flowRoot3915">
        <path
           d="m 162.2,620.62492 c -8.53343,0 -12.80009,-9.79999 -12.8,-29.4 -9e-5,-8.5333 -3.80009,-15.59995 -11.4,-21.2 -5.46674,-3.86661 -11.06673,-6.26661 -16.8,-7.2 -0.1334,-0.13328 -0.26673,-0.19994 -0.4,-0.2 l -34,0 0,55.4 c -2.8e-5,1.33333 -0.533361,2.46667 -1.6,3.4 -0.933359,0.93333 -2.066691,1.4 -3.4,1.4 -1.333355,0 -2.466687,-0.46667 -3.4,-1.4 -0.933352,-0.93333 -1.400018,-2.06667 -1.4,-3.4 l 0,-130.4 c -1.8e-5,-1.19987 0.399982,-2.26653 1.2,-3.2 0.933313,-0.9332 1.999979,-1.46653 3.2,-1.6 l 40,0 c 11.06659,1.4e-4 20.46658,3.93347 28.2,11.8 7.73323,7.73345 11.5999,17.13344 11.6,28.2 -10e-5,7.86676 -2.13343,15.06675 -6.4,21.6 -4.13343,6.5334 -9.66675,11.40006 -16.6,14.6 l 2,1 c 5.33325,3.06672 9.79991,7.20005 13.4,12.4 3.5999,5.20004 5.3999,12.2667 5.4,21.2 -1e-4,8.93335 1.26657,14.66668 3.8,17.2 2.79989,-0.26666 4.59989,0.80001 5.4,3.2 0.66656,3.2 -0.40011,5.33333 -3.2,6.4 l -0.4,0 -2,0.2 -0.4,0 m -40,-67.6 c 8.13326,-0.2666 15.06659,-3.33326 20.8,-9.2 5.73324,-5.86658 8.59991,-12.93324 8.6,-21.2 -9e-5,-8.26656 -3.00009,-15.33322 -9,-21.2 -5.86674,-5.86654 -12.9334,-8.79987 -21.2,-8.8 l -34.6,0 0,60.4 35.4,0"
           style="line-height:125%;letter-spacing:-1.19000089000000009px;fill:#000000;fill-opacity:1;font-family:Quicksand;-inkscape-font-specification:Quicksand;stroke:none;stroke-opacity:1"
           id="path4438"
           inkscape:connector-curvature="0" />
        <path
           d="m 386.30874,517.22492 c 0.26664,13.33342 13.73329,22.53341 40.4,27.6 l 0.4,0 c 15.33325,2.80007 27.19991,7.06674 35.6,12.8 10.26655,6.66672 15.39988,15.53338 15.4,26.6 -1.2e-4,10.93336 -5.20011,20.13335 -15.6,27.6 -10.26676,7.46667 -22.33341,11.2 -36.2,11.2 -17.60005,-0.13334 -34.80003,-6.86666 -51.6,-20.2 -2.13335,-1.86665 -2.33335,-3.93331 -0.6,-6.2 0.79999,-0.93331 1.79998,-1.46664 3,-1.6 1.19998,-0.13331 2.26665,0.20003 3.2,1 15.06663,12.13335 30.39995,18.13334 46,18 12.26659,1e-5 22.53324,-3.06666 30.8,-9.2 7.99989,-5.73331 11.99989,-12.66664 12,-20.8 -1.1e-4,-14.93328 -14.60009,-25.13327 -43.8,-30.6 l -0.4,0 c -31.60003,-5.86659 -47.40002,-17.93325 -47.4,-36.2 -2e-5,-10.39989 4.73331,-19.06654 14.2,-26 9.59996,-6.9332 20.99995,-10.39986 34.2,-10.4 5.73326,1.4e-4 11.46659,1.00014 17.2,3 5.86658,1.8668 10.39991,3.73347 13.6,5.6 3.1999,1.73346 7.33323,4.26679 12.4,7.6 2.39989,1.60012 2.79989,3.66679 1.2,6.2 -1.46678,2.40012 -3.46677,2.80011 -6,1.2 -4.8001,-3.06655 -8.73343,-5.46654 -11.8,-7.2 -2.93342,-1.73321 -6.93342,-3.39987 -12,-5 -4.93341,-1.7332 -9.80007,-2.59987 -14.6,-2.6 -11.20005,1.3e-4 -20.73338,2.80013 -28.6,8.4 -7.33336,5.46678 -11.00003,11.86678 -11,19.2"
           style="line-height:125%;letter-spacing:-16.19998550000000037px;fill:#000000;fill-opacity:1;font-family:Quicksand;-inkscape-font-specification:Quicksand;stroke:none;stroke-opacity:1"
           id="path4440"
           inkscape:connector-curvature="0" />
        <path
           d="m 506.56123,618.02492 0,-130.4 c -2e-5,-1.3332 0.46664,-2.46653 1.4,-3.4 0.93331,-0.9332 2.06664,-1.39986 3.4,-1.4 l 72,0 c 1.33323,1.4e-4 2.46657,0.4668 3.4,1.4 0.93323,0.93347 1.3999,2.13347 1.4,3.6 -1e-4,1.33346 -0.46677,2.4668 -1.4,3.4 -0.93343,0.93346 -2.06677,1.40013 -3.4,1.4 l -67,0 0,55.4 58.6,0 c 1.33324,7e-5 2.46657,0.53341 3.4,1.6 0.93324,0.9334 1.3999,2.06674 1.4,3.4 -10e-5,1.3334 -0.46676,2.46673 -1.4,3.4 -0.93343,0.9334 -2.06676,1.40006 -3.4,1.4 l -58.6,0 0,55.2 67,0 c 1.33323,1e-5 2.46657,0.46667 3.4,1.4 0.93323,0.93334 1.3999,2.13334 1.4,3.6 -1e-4,1.33333 -0.46677,2.46667 -1.4,3.4 -0.93343,0.93333 -2.06677,1.4 -3.4,1.4 l -72.4,0 c -1.20003,-0.13334 -2.26669,-0.6 -3.2,-1.4 -0.80002,-0.93333 -1.20002,-2.06667 -1.2,-3.4"
           style="line-height:125%;letter-spacing:-8.64000225000000022px;fill:#000000;fill-opacity:1;font-family:Quicksand;-inkscape-font-specification:Quicksand;stroke:none;stroke-opacity:1"
           id="path4442"
           inkscape:connector-curvature="0" />
      </g>
      <g
         transform="translate(1008.3759,-398.50967)"
         id="g3923"
         style="stroke-width:10;stroke-miterlimit:4;stroke-dasharray:none;stroke:#000000;stroke-opacity:1">
        <path
           sodipodi:type="arc"
           id="path3015-4-7"
           sodipodi:cx="122.14286"
           sodipodi:cy="481.64789"
           sodipodi:rx="32.142857"
           sodipodi:ry="37.857143"
           d="m 154.28572,481.64789 c 0,20.90792 -14.39085,37.85714 -32.14286,37.85714 -17.75201,0 -32.142856,-16.94922 -32.142856,-37.85714 0,-20.90792 14.390846,-37.85715 32.142856,-37.85715 17.75201,0 32.14286,16.94923 32.14286,37.85715 z"
           style="fill:none;stroke:#000000;stroke-width:5.77070475000000016;stroke-miterlimit:4;stroke-opacity:1;stroke-dasharray:none"
           transform="matrix(1.6220107,-0.9517575,0.80809593,1.3771787,-323.1996,-28.865538)" />
        <path
           sodipodi:type="arc"
           id="path3015-4-70"
           sodipodi:cx="122.14286"
           sodipodi:cy="481.64789"
           sodipodi:rx="32.142857"
           sodipodi:ry="37.857143"
           d="m 154.28572,481.64789 c 0,20.90792 -14.39085,37.85714 -32.14286,37.85714 -17.75201,0 -32.142856,-16.94922 -32.142856,-37.85714 0,-20.90792 14.390846,-37.85715 32.142856,-37.85715 17.75201,0 32.14286,16.94923 32.14286,37.85715 z"
           style="fill:none;stroke:#000000;stroke-width:5.86975669999999994;stroke-miterlimit:4;stroke-opacity:1;stroke-dasharray:none"
           transform="matrix(1.5946392,-0.93569656,0.79445933,1.3539389,-348.1781,-38.18342)" />
        <path
           sodipodi:type="arc"
           id="path3015-4-7-9"
           sodipodi:cx="122.14286"
           sodipodi:cy="481.64789"
           sodipodi:rx="32.142857"
           sodipodi:ry="37.857143"
           d="m 154.28572,481.64789 c 0,20.90792 -14.39085,37.85714 -32.14286,37.85714 -17.75201,0 -32.142856,-16.94922 -32.142856,-37.85714 0,-20.90792 14.390846,-37.85715 32.142856,-37.85715 17.75201,0 32.14286,16.94923 32.14286,37.85715 z"
           style="fill:none;stroke:#000000;stroke-width:5.77070475000000016;stroke-miterlimit:4;stroke-opacity:1;stroke-dasharray:none"
           transform="matrix(1.6220107,-0.9517575,0.80809593,1.3771787,-323.84571,-68.754715)" />
      </g>
    </g>
  </g>
</svg>
