<?xml version="1.0" encoding="UTF-8" standalone="no"?>
<!-- Created with Inkscape (http://www.inkscape.org/) -->

<svg
   xmlns:dc="http://purl.org/dc/elements/1.1/"
   xmlns:cc="http://creativecommons.org/ns#"
   xmlns:rdf="http://www.w3.org/1999/02/22-rdf-syntax-ns#"
   xmlns:svg="http://www.w3.org/2000/svg"
   xmlns="http://www.w3.org/2000/svg"
   xmlns:sodipodi="http://sodipodi.sourceforge.net/DTD/sodipodi-0.dtd"
   xmlns:inkscape="http://www.inkscape.org/namespaces/inkscape"
   width="120"
   height="40"
   id="svg4400"
   version="1.1"
   inkscape:version="0.48.4 r9939"
   sodipodi:docname="default.svg"
   inkscape:export-filename="/home/zac/Web/html/rose/img/logo/default.png"
   inkscape:export-xdpi="90"
   inkscape:export-ydpi="90">
  <defs
     id="defs4402" />
  <sodipodi:namedview
     id="base"
     pagecolor="#ffffff"
     bordercolor="#666666"
     borderopacity="1.0"
     inkscape:pageopacity="0.0"
     inkscape:pageshadow="2"
     inkscape:zoom="4"
     inkscape:cx="47.818827"
     inkscape:cy="24.500577"
     inkscape:document-units="px"
     inkscape:current-layer="g3094"
     showgrid="false"
     inkscape:window-width="1366"
     inkscape:window-height="702"
     inkscape:window-x="0"
     inkscape:window-y="27"
     inkscape:window-maximized="1"
     fit-margin-top="0"
     fit-margin-left="0"
     fit-margin-right="0"
     fit-margin-bottom="-0.3"
     showguides="true"
     inkscape:guide-bbox="true">
    <sodipodi:guide
       orientation="0,1"
       position="108.71767,3.3461274"
       id="guide3970" />
    <sodipodi:guide
       orientation="0,1"
       position="126.42857,58.571424"
       id="guide3972" />
    <sodipodi:guide
       orientation="1,0"
       position="120.02232,15.647318"
       id="guide2994" />
    <sodipodi:guide
       orientation="1,0"
       position="0,4.6514368"
       id="guide3796" />
  </sodipodi:namedview>
  <metadata
     id="metadata4405">
    <rdf:RDF>
      <cc:Work
         rdf:about="">
        <dc:format>image/svg+xml</dc:format>
        <dc:type
           rdf:resource="http://purl.org/dc/dcmitype/StillImage" />
        <dc:title></dc:title>
      </cc:Work>
    </rdf:RDF>
  </metadata>
  <g
     inkscape:label="Layer 1"
     inkscape:groupmode="layer"
     id="layer1"
     transform="translate(-61.07435,-384.67227)">
    <g
       id="g4126"
       transform="matrix(0.4619619,0,0,0.4619619,-430.87416,351.99806)">
      <g
         id="g3094"
         transform="matrix(0.506933,0,0,0.506933,525.07269,63.45879)">
        <g
           style="opacity:0.98000004;stroke-width:10;stroke-miterlimit:4;stroke-dasharray:none"
           id="g3923"
           transform="translate(1008.3759,-398.50966)">
          <path
             transform="matrix(1.6220107,-0.9517575,0.80809593,1.3771787,-323.1996,-28.865538)"
             style="fill:none;stroke:#c43200;stroke-width:5.77070475;stroke-miterlimit:4;stroke-opacity:1;stroke-dasharray:none"
             d="m 154.28572,481.64789 c 0,20.90792 -14.39085,37.85714 -32.14286,37.85714 -17.75201,0 -32.142856,-16.94922 -32.142856,-37.85714 0,-20.90792 14.390846,-37.85715 32.142856,-37.85715 17.75201,0 32.14286,16.94923 32.14286,37.85715 z"
             sodipodi:ry="37.857143"
             sodipodi:rx="32.142857"
             sodipodi:cy="481.64789"
             sodipodi:cx="122.14286"
             id="path3015-4-7"
             sodipodi:type="arc" />
          <path
             transform="matrix(1.5946392,-0.93569656,0.79445933,1.3539389,-348.1781,-38.18342)"
             style="fill:none;stroke:#c43200;stroke-width:5.8697567;stroke-miterlimit:4;stroke-opacity:1;stroke-dasharray:none"
             d="m 154.28572,481.64789 c 0,20.90792 -14.39085,37.85714 -32.14286,37.85714 -17.75201,0 -32.142856,-16.94922 -32.142856,-37.85714 0,-20.90792 14.390846,-37.85715 32.142856,-37.85715 17.75201,0 32.14286,16.94923 32.14286,37.85715 z"
             sodipodi:ry="37.857143"
             sodipodi:rx="32.142857"
             sodipodi:cy="481.64789"
             sodipodi:cx="122.14286"
             id="path3015-4-70"
             sodipodi:type="arc" />
          <path
             transform="matrix(1.6220107,-0.9517575,0.80809593,1.3771787,-323.84571,-68.754715)"
             style="fill:none;stroke:#c43200;stroke-width:5.77070475;stroke-miterlimit:4;stroke-opacity:1;stroke-dasharray:none"
             d="m 154.28572,481.64789 c 0,20.90792 -14.39085,37.85714 -32.14286,37.85714 -17.75201,0 -32.142856,-16.94922 -32.142856,-37.85714 0,-20.90792 14.390846,-37.85715 32.142856,-37.85715 17.75201,0 32.14286,16.94923 32.14286,37.85715 z"
             sodipodi:ry="37.857143"
             sodipodi:rx="32.142857"
             sodipodi:cy="481.64789"
             sodipodi:cx="122.14286"
             id="path3015-4-7-9"
             sodipodi:type="arc" />
        </g>
        <flowRoot
           xml:space="preserve"
           id="flowRoot3003"
           style="font-size:40px;font-style:normal;font-weight:normal;line-height:125%;letter-spacing:0px;word-spacing:0px;fill:#000000;fill-opacity:1;stroke:none;font-family:Sans"
           transform="matrix(4.2701514,0,0,4.2701514,1064.9114,14.342016)"><flowRegion
             id="flowRegion3005"><rect
               id="rect3007"
               width="87"
               height="41"
               x="-4"
               y="61.5" /></flowRegion><flowPara
             id="flowPara3009">ROSE</flowPara></flowRoot>        <g
           transform="matrix(4.2701514,0,0,4.4734542,1048.9978,-264.21175)"
           style="font-size:40px;font-style:normal;font-variant:normal;font-weight:normal;font-stretch:normal;line-height:125%;letter-spacing:0px;word-spacing:0px;opacity:0.98000004;fill:#1e1e1e;fill-opacity:1;stroke:none;font-family:Quicksand;-inkscape-font-specification:Quicksand"
           id="flowRoot3011">
          <path
             d="m 23.752,97.503731 c -2.005356,0 -3.008021,-2.302997 -3.008,-6.909 -2.1e-5,-2.005324 -0.89302,-3.665989 -2.679,-4.982 -1.284684,-0.908654 -2.600683,-1.472653 -3.948,-1.692 -0.03135,-0.03132 -0.06268,-0.04699 -0.094,-0.047 l -7.99,0 0,13.019 c -6.5e-6,0.313334 -0.1253397,0.579667 -0.376,0.799 -0.2193393,0.219333 -0.4856723,0.329 -0.799,0.329 -0.3133384,0 -0.5796714,-0.109667 -0.799,-0.329 -0.2193377,-0.219333 -0.3290042,-0.485666 -0.329,-0.799 l 0,-30.644 c -4.2e-6,-0.281968 0.093996,-0.532635 0.282,-0.752 0.2193286,-0.219301 0.469995,-0.344634 0.752,-0.376 l 9.4,0 c 2.600649,3.3e-5 4.809647,0.924365 6.627,2.773 1.81731,1.817361 2.725976,4.026359 2.726,6.627 -2.4e-5,1.848688 -0.501357,3.540686 -1.504,5.076 -0.971355,1.53535 -2.271687,2.679015 -3.901,3.431 l 0.47,0.235 c 1.253313,0.72068 2.302979,1.692013 3.149,2.914 0.845977,1.22201 1.268976,2.882675 1.269,4.982 -2.4e-5,2.099338 0.297643,3.44667 0.893,4.042 0.657975,-0.06266 1.080975,0.188002 1.269,0.752 0.156641,0.752001 -0.09403,1.253334 -0.752,1.504 l -0.094,0 -0.47,0.047 -0.094,0 m -9.4,-15.886 c 1.911317,-0.06265 3.540648,-0.783316 4.888,-2.162 1.347312,-1.378647 2.020978,-3.039312 2.021,-4.982 -2.2e-5,-1.942641 -0.705021,-3.603306 -2.115,-4.982 -1.378685,-1.378637 -3.03935,-2.06797 -4.982,-2.068 l -8.131,0 0,14.194 8.319,0"
             style="font-size:47px;fill:#1e1e1e"
             id="path3788"
             inkscape:connector-curvature="0" />
          <path
             d="m 75.057641,73.204731 c 0.06266,3.133355 3.227323,5.295353 9.494,6.486 l 0.094,0 c 3.603314,0.658017 6.391977,1.660683 8.366,3.008 2.41264,1.56668 3.618972,3.650345 3.619,6.251 -2.8e-5,2.56934 -1.222027,4.731337 -3.666,6.486 -2.412689,1.754667 -5.248353,2.632 -8.507,2.632 -4.136012,-0.03133 -8.178008,-1.613665 -12.126,-4.747 -0.501337,-0.438662 -0.548337,-0.924328 -0.141,-1.457 0.187996,-0.219327 0.422996,-0.34466 0.705,-0.376 0.281995,-0.03133 0.532662,0.04701 0.752,0.235 3.540658,2.851336 7.143988,4.261335 10.81,4.23 2.882648,2e-6 5.295312,-0.720664 7.238,-2.162 1.879975,-1.347328 2.819974,-2.97666 2.82,-4.888 -2.6e-5,-3.509321 -3.431023,-5.906319 -10.293,-7.191 l -0.094,0 c -7.426008,-1.378649 -11.139005,-4.214313 -11.139,-8.507 -5e-6,-2.443973 1.112328,-4.480638 3.337,-6.11 2.25599,-1.629301 4.934987,-2.443967 8.037,-2.444 1.347316,3.3e-5 2.694648,0.235033 4.042,0.705 1.378645,0.438699 2.443978,0.877365 3.196,1.316 0.751976,0.407364 1.723308,1.002697 2.914,1.786 0.563973,0.376029 0.657973,0.861695 0.282,1.457 -0.344693,0.564027 -0.814692,0.658027 -1.41,0.282 -1.128024,-0.720638 -2.052356,-1.284638 -2.773,-1.692 -0.689355,-0.407304 -1.629354,-0.79897 -2.82,-1.175 -1.159352,-0.407303 -2.303017,-0.610969 -3.431,-0.611 -2.632013,3.1e-5 -4.872344,0.65803 -6.721,1.974 -1.723341,1.284694 -2.585007,2.788693 -2.585,4.512"
             style="font-size:47px;fill:#1e1e1e"
             id="path3792"
             inkscape:connector-curvature="0" />
          <path
             d="m 104.47045,96.892731 0,-30.644 c 0,-0.313302 0.10966,-0.579635 0.329,-0.799 0.21933,-0.219301 0.48566,-0.328967 0.799,-0.329 l 16.92,0 c 0.31331,3.3e-5 0.57965,0.109699 0.799,0.329 0.21931,0.219365 0.32898,0.501365 0.329,0.846 -2e-5,0.313364 -0.10969,0.579698 -0.329,0.799 -0.21935,0.219364 -0.48569,0.32903 -0.799,0.329 l -15.745,0 0,13.019 13.771,0 c 0.31331,1.7e-5 0.57965,0.12535 0.799,0.376 0.21931,0.21935 0.32898,0.485683 0.329,0.799 -2e-5,0.313349 -0.10969,0.579682 -0.329,0.799 -0.21935,0.219348 -0.48569,0.329015 -0.799,0.329 l -13.771,0 0,12.972 15.745,0 c 0.31331,2e-6 0.57965,0.109669 0.799,0.329 0.21931,0.219335 0.32898,0.501335 0.329,0.846 -2e-5,0.313334 -0.10969,0.579667 -0.329,0.799 -0.21935,0.219333 -0.48569,0.329 -0.799,0.329 l -17.014,0 c -0.282,-0.03133 -0.53267,-0.141 -0.752,-0.329 -0.188,-0.219333 -0.282,-0.485666 -0.282,-0.799"
             style="font-size:47px;fill:#1e1e1e"
             id="path3794"
             inkscape:connector-curvature="0" />
        </g>
      </g>
    </g>
  </g>
</svg>
