<svg xmlns="http://www.w3.org/2000/svg" class="custom-icon" viewBox="0 0 100 100" style="height:100px;width:100px"><path class="inner-shape" d="M66.667 25h-33.333c-4.583 0-8.334 3.751-8.334 8.335v33.331c0 4.587 3.751 8.335 8.334 8.335h33.333c4.584 0 8.333-3.748 8.333-8.335v-33.331c0-4.583-3.749-8.335-8.333-8.335zm.843 25h-8.134v21.875h-9.375v-21.875h-4.518v-7.157h4.518v-4.648c0-6.316 2.724-10.071 10.15-10.071h8.557v7.742h-6.989c-2.075-.004-2.332 1.081-2.332 3.101l-.011 3.874h9.375l-1.24 7.157z" fill="#fff"/></svg>