<svg xmlns="http://www.w3.org/2000/svg" class="custom-icon" viewBox="0 0 100 100" style="height:100px;width:100px"><path class="inner-shape" d="M50 25c-13.807 0-25 11.193-25 25s11.193 25 25 25 25-11.193 25-25-11.193-25-25-25zm14.846 39.846c-1.929 1.929-4.176 3.444-6.675 4.502-.635.269-1.28.504-1.933.708v-3.747c0-1.97-.675-3.418-2.026-4.346.847-.082 1.623-.196 2.332-.342s1.456-.358 2.246-.635 1.498-.607 2.124-.989 1.229-.879 1.806-1.49 1.062-1.302 1.452-2.075.7-1.701.927-2.783.342-2.275.342-3.576c0-2.523-.822-4.671-2.466-6.446.749-1.953.667-4.077-.244-6.372l-.611-.073c-.423-.049-1.184.13-2.283.537s-2.332 1.074-3.699 2.002c-1.937-.537-3.947-.805-6.03-.805-2.099 0-4.101.269-6.006.805-.863-.586-1.681-1.07-2.454-1.452-.773-.383-1.391-.643-1.855-.781s-.895-.224-1.294-.257-.655-.041-.769-.025l-.244.049c-.911 2.311-.993 4.436-.244 6.372-1.644 1.774-2.466 3.922-2.466 6.446 0 1.302.114 2.494.342 3.576s.537 2.01.927 2.783.875 1.465 1.452 2.075 1.18 1.107 1.806 1.49 1.335.712 2.124.989 1.538.488 2.246.635 1.485.261 2.332.342c-1.335.911-2.002 2.36-2.002 4.346v3.82c-.737-.22-1.464-.478-2.178-.78-2.499-1.058-4.745-2.572-6.675-4.502-1.929-1.929-3.444-4.176-4.502-6.675-1.093-2.586-1.648-5.335-1.648-8.171s.554-5.585 1.649-8.171c1.058-2.499 2.572-4.745 4.502-6.675s4.176-3.444 6.675-4.502c2.586-1.094 5.335-1.649 8.171-1.649s5.585.554 8.171 1.649c2.5 1.058 4.745 2.572 6.675 4.502 1.929 1.929 3.444 4.176 4.502 6.675 1.093 2.586 1.648 5.335 1.648 8.171s-.554 5.585-1.649 8.171c-1.058 2.499-2.572 4.745-4.502 6.675z" fill="#fff"/></svg>