<?xml version="1.0" encoding="UTF-8" standalone="no"?>
<!-- Generate more at icons.mysitemyway.com -->

<svg
   xmlns:dc="http://purl.org/dc/elements/1.1/"
   xmlns:cc="http://creativecommons.org/ns#"
   xmlns:rdf="http://www.w3.org/1999/02/22-rdf-syntax-ns#"
   xmlns:svg="http://www.w3.org/2000/svg"
   xmlns="http://www.w3.org/2000/svg"
   xmlns:sodipodi="http://sodipodi.sourceforge.net/DTD/sodipodi-0.dtd"
   xmlns:inkscape="http://www.inkscape.org/namespaces/inkscape"
   id="googleplus-icon"
   class="custom-icon"
   version="1.1"
   viewBox="0 0 100 100"
   style="height:100px;width:100px;"
   inkscape:version="0.48.4 r9939"
   width="100%"
   height="100%"
   sodipodi:docname="googleplus.svg">
  <metadata
     id="metadata11">
    <rdf:RDF>
      <cc:Work
         rdf:about="">
        <dc:format>image/svg+xml</dc:format>
        <dc:type
           rdf:resource="http://purl.org/dc/dcmitype/StillImage" />
      </cc:Work>
    </rdf:RDF>
  </metadata>
  <defs
     id="defs9" />
  <sodipodi:namedview
     pagecolor="#ffffff"
     bordercolor="#666666"
     borderopacity="1"
     objecttolerance="10"
     gridtolerance="10"
     guidetolerance="10"
     inkscape:pageopacity="0"
     inkscape:pageshadow="2"
     inkscape:window-width="640"
     inkscape:window-height="480"
     id="namedview7"
     showgrid="false"
     inkscape:zoom="2.36"
     inkscape:cx="50"
     inkscape:cy="50"
     inkscape:window-x="0"
     inkscape:window-y="27"
     inkscape:window-maximized="0"
     inkscape:current-layer="googleplus-icon" />
  <path
     class="inner-shape"
     style="opacity:1;fill:#fff;"
     transform="translate(25,25) scale(0.5)"
     d="M0.079 84.928c-0.024-0.247-0.044-0.495-0.057-0.745 0.013 0.25 0.033 0.498 0.057 0.745zM23.038 55.19c8.985 0.267 15.013-9.053 13.463-20.82-1.552-11.766-10.097-21.208-19.083-21.477-8.987-0.267-15.014 8.738-13.462 20.508 1.551 11.764 10.093 21.521 19.082 21.789zM100 25v-8.331c0-9.168-7.498-16.669-16.666-16.669h-66.666c-9.011 0-16.407 7.249-16.657 16.204 5.699-5.018 13.606-9.211 21.765-9.211 8.721 0 34.887 0 34.887 0l-7.807 6.603h-11.061c7.337 2.813 11.246 11.34 11.246 20.090 0 7.348-4.083 13.667-9.852 18.161-5.629 4.385-6.696 6.221-6.696 9.949 0 3.181 6.030 8.594 9.183 10.819 9.217 6.498 12.199 12.53 12.199 22.603 0 1.604-0.199 3.206-0.592 4.781h30.053c9.167 0 16.666-7.495 16.666-16.669v-52.081h-18.75v18.75h-6.25v-18.75h-18.75v-6.25h18.75v-18.75h6.25v18.75h18.75zM18.153 74.798c2.111 0 4.045-0.058 6.048-0.058-2.651-2.572-4.749-5.723-4.749-9.607 0-2.305 0.739-4.525 1.771-6.496-1.053 0.075-2.128 0.097-3.235 0.097-7.261 0-13.428-2.351-17.989-6.236v6.567l0.001 19.7c5.219-2.478 11.415-3.967 18.152-3.967zM0.334 86.646c-0.109-0.533-0.192-1.075-0.248-1.624 0.056 0.55 0.14 1.091 0.248 1.624zM44.478 93.051c-1.471-5.743-6.685-8.59-13.954-13.63-2.644-0.853-5.556-1.355-8.681-1.388-8.752-0.094-16.905 3.412-21.505 8.63 1.555 7.588 8.304 13.336 16.331 13.336h27.973c0.177-1.087 0.263-2.21 0.263-3.362 0-1.224-0.15-2.421-0.427-3.586z"
     id="path5" />
</svg>
