<svg xmlns="http://www.w3.org/2000/svg" class="custom-icon" viewBox="0 0 100 100" style="height:100px;width:100px"><g fill="#fff"><path d="M51.366 53.652l-2.422-1.881c-.738-.612-1.746-1.419-1.746-2.897 0-1.484 1.009-2.428 1.884-3.301 2.821-2.22 5.64-4.584 5.64-9.564 0-5.121-3.222-7.815-4.767-9.093h4.164l4.371-2.746h-13.242c-3.633 0-8.87.86-12.703 4.024-2.889 2.493-4.299 5.93-4.299 9.024 0 5.253 4.033 10.577 11.154 10.577.672 0 1.408-.066 2.149-.135-.333.809-.669 1.483-.669 2.627 0 2.086 1.072 3.365 2.017 4.577-3.026.208-8.675.543-12.839 3.103-3.966 2.358-5.173 5.791-5.173 8.214 0 4.987 4.7 9.632 14.447 9.632 11.558 0 17.677-6.396 17.677-12.727.001-4.652-2.687-6.942-5.645-9.433zm-8.803-7.745c-5.782 0-8.401-7.475-8.401-11.985 0-1.756.333-3.569 1.476-4.985 1.078-1.349 2.955-2.223 4.708-2.223 5.574 0 8.465 7.542 8.465 12.392 0 1.214-.134 3.364-1.679 4.919-1.081 1.079-2.89 1.882-4.569 1.882zm.066 27.082c-7.19 0-11.827-3.439-11.827-8.222 0-4.781 4.299-6.399 5.778-6.934 2.821-.949 6.451-1.082 7.057-1.082.672 0 1.008 0 1.543.067 5.111 3.638 7.33 5.451 7.33 8.894 0 4.17-3.429 7.276-9.882 7.276z"/><path d="M68.338 45.804v-6.734h-3.326v6.734h-6.723v3.363h6.723v6.775h3.326v-6.775h6.757v-3.363z"/></g></svg>