<svg xmlns="http://www.w3.org/2000/svg" class="custom-icon" viewBox="0 0 100 100" style="height:100px;width:100px"><path class="inner-shape" d="M75 34.342c-1.84.821-3.817 1.375-5.891 1.625 2.118-1.277 3.744-3.299 4.511-5.708-1.982 1.183-4.177 2.041-6.514 2.504-1.871-2.006-4.537-3.259-7.487-3.259-5.665 0-10.258 4.62-10.258 10.318 0 .808.09 1.596.266 2.352-8.526-.431-16.084-4.538-21.144-10.781-.883 1.524-1.389 3.296-1.389 5.187 0 3.58 1.811 6.739 4.564 8.588-1.681-.053-3.264-.517-4.646-1.29l-.001.13c0 5 3.536 9.169 8.229 10.117-.861.236-1.767.362-2.703.362-.661 0-1.304-.065-1.93-.185 1.306 4.099 5.094 7.082 9.582 7.165-3.51 2.768-7.934 4.417-12.74 4.417-.828 0-1.645-.049-2.447-.144 4.54 2.928 9.932 4.636 15.725 4.636 18.868 0 29.186-15.723 29.186-29.358 0-.448-.01-.892-.03-1.335 2.004-1.455 3.744-3.272 5.119-5.341z" fill="#fff"/></svg>