<?xml version="1.0" encoding="UTF-8" standalone="no"?>
<!-- Generate more at icons.mysitemyway.com -->

<svg
   xmlns:dc="http://purl.org/dc/elements/1.1/"
   xmlns:cc="http://creativecommons.org/ns#"
   xmlns:rdf="http://www.w3.org/1999/02/22-rdf-syntax-ns#"
   xmlns:svg="http://www.w3.org/2000/svg"
   xmlns="http://www.w3.org/2000/svg"
   xmlns:sodipodi="http://sodipodi.sourceforge.net/DTD/sodipodi-0.dtd"
   xmlns:inkscape="http://www.inkscape.org/namespaces/inkscape"
   id="twitter-icon"
   class="custom-icon"
   version="1.1"
   viewBox="0 0 100 100"
   style="height:100px;width:100px;"
   inkscape:version="0.48.4 r9939"
   width="100%"
   height="100%"
   sodipodi:docname="twitter.svg">
  <metadata
     id="metadata11">
    <rdf:RDF>
      <cc:Work
         rdf:about="">
        <dc:format>image/svg+xml</dc:format>
        <dc:type
           rdf:resource="http://purl.org/dc/dcmitype/StillImage" />
      </cc:Work>
    </rdf:RDF>
  </metadata>
  <defs
     id="defs9" />
  <sodipodi:namedview
     pagecolor="#ffffff"
     bordercolor="#666666"
     borderopacity="1"
     objecttolerance="10"
     gridtolerance="10"
     guidetolerance="10"
     inkscape:pageopacity="0"
     inkscape:pageshadow="2"
     inkscape:window-width="640"
     inkscape:window-height="480"
     id="namedview7"
     showgrid="false"
     inkscape:zoom="2.36"
     inkscape:cx="50"
     inkscape:cy="50"
     inkscape:window-x="0"
     inkscape:window-y="27"
     inkscape:window-maximized="0"
     inkscape:current-layer="twitter-icon" />
  <path
     class="inner-shape"
     style="opacity:1;fill:#fff;"
     transform="translate(25,25) scale(0.5)"
     d="M100,18.684c-3.68,1.641-7.633,2.75-11.783,3.249 c4.235-2.554,7.488-6.598,9.021-11.417c-3.964,2.365-8.354,4.082-13.028,5.008c-3.742-4.011-9.074-6.517-14.975-6.517 c-11.33,0-20.517,9.239-20.517,20.636c0,1.617,0.181,3.192,0.531,4.703C32.198,33.484,17.081,25.27,6.962,12.784 c-1.766,3.048-2.778,6.593-2.778,10.374c0,7.16,3.622,13.477,9.127,17.177c-3.363-0.106-6.527-1.035-9.292-2.581 c-0.002,0.087-0.002,0.173-0.002,0.26c0,9.999,7.072,18.339,16.458,20.235c-1.722,0.472-3.534,0.724-5.405,0.724 c-1.322,0-2.607-0.13-3.86-0.37c2.611,8.198,10.188,14.165,19.165,14.331c-7.021,5.535-15.868,8.834-25.48,8.834 c-1.656,0-3.289-0.098-4.894-0.288c9.08,5.855,19.864,9.272,31.449,9.272c37.736,0,58.373-31.446,58.373-58.717 c0-0.895-0.02-1.784-0.06-2.67C93.771,26.456,97.25,22.821,100,18.684z"
     id="path5" />
</svg>
