<svg xmlns="http://www.w3.org/2000/svg" width="600" height="623"><g stroke="#000" stroke-width="10" opacity=".1" fill="none"><path d="M500.383 274.579c48.715 83.004 20.916 189.781-62.093 238.493-83.008 48.712-189.792 20.912-238.507-62.093-48.715-83.004-20.916-189.781 62.093-238.493 83.008-48.712 189.792-20.912 238.507 62.093z"/><path d="M396.918 222.697c47.879 81.604 20.538 186.569-61.068 234.446-81.606 47.877-186.574 20.536-234.454-61.067-47.879-81.604-20.538-186.569 61.068-234.446 81.606-47.877 186.574-20.536 234.454 61.067z"/><path d="M498.52 159.583c48.715 83.004 20.916 189.781-62.093 238.493-83.008 48.712-189.792 20.912-238.507-62.093-48.715-83.004-20.916-189.781 62.093-238.493 83.008-48.712 189.792-20.912 238.507 62.093z"/></g></svg>